# xmcd CD database file
#
# Track frame offsets:
#	150
#	10802
#	21055
#	36372
#	46505
#	59397
#	68800
#	79185
#
# Disc length: 1232 seconds
#
# Revision: 1
# Processed by: cddbd v1.4PL0 Copyright (c) Steve Scherf et al.
# Submitted via: CDex 1.40Release
#
DISCID=5a04ce08
DTITLE=Jim Reeves - The Best of Jim Reeves
DYEAR=1992
DGENRE=Country
TTITLE0=He'll Have To Go
TTITLE1=I'm Getting Better
TTITLE2=The Blizzard
TTITLE3=Stand At Your Window
TTITLE4=Four Walls
TTITLE5=Billy Bayou
TTITLE6=Am I Losing You
TTITLE7=Danny Boy
EXTD=YEAR: 1992 ID3G: 2
EXTT0=
EXTT1=
EXTT2=
EXTT3=
EXTT4=
EXTT5=
EXTT6=
EXTT7=
PLAYORDER=
